<?xml version="1.0" encoding="utf-8"?>
<!-- Generator: Adobe Illustrator 17.0.0, SVG Export Plug-In . SVG Version: 6.00 Build 0)  -->
<!DOCTYPE svg PUBLIC "-//W3C//DTD SVG 1.1//EN" "http://www.w3.org/Graphics/SVG/1.1/DTD/svg11.dtd">
<svg version="1.1" id="Layer_1" xmlns="http://www.w3.org/2000/svg" xmlns:xlink="http://www.w3.org/1999/xlink" x="0px" y="0px"
	 width="85.132px" height="70.063px" viewBox="0 0 85.132 70.063" enable-background="new 0 0 85.132 70.063" xml:space="preserve">
<path d="M34.564,0.062v70c0,0-23.21,0-34.564,0c0-23.333,0-46.667,0-70C11.354,0.063,34.564,0.062,34.564,0.062z M3.815,49.194
	c9.314,0,18.351,0,27.527,0c0-15.287,0-30.181,0-45.34c-9.307,0-18.326,0-27.527,0C3.815,19.157,3.815,34.069,3.815,49.194z
	 M31.315,53.165c-9.371,0-18.265,0-27.355,0c0,4.619,0,8.953,0,13.427c9.296,0,18.171,0,27.355,0
	C31.315,62.074,31.315,57.851,31.315,53.165z"/>
<path d="M84.939,19.812c0,0-3.215-0.013-4.824-0.003c-11.797,0.069-40.351,0.003-40.351,0.003L39.772,0c0,0,30.167,0,45.167,0
	C84.939,6.333,84.939,19.812,84.939,19.812z M81.198,3.798c-13.009,0-25.525,0-38.124,0c0,4.33,0,8.261,0,12.442
	c12.775,0,25.304,0,38.124,0C81.198,12.018,81.198,8.111,81.198,3.798z"/>
<path d="M84.939,43.813c-7.069,0-12.252,0-15.844,0c-3.126,0-4.406-0.209-4.438-3.762c-0.062-4.301,0.054-9.866,0.054-14.988
	c7.119,0,13.673,0,20.227,0C84.939,31.396,84.939,37.48,84.939,43.813z M80.901,40.66c0-4.39,0-8.487,0-12.319
	c-4.641,0-8.677,0-12.586,0c0,4.358,0,8.256,0,12.319C72.742,40.66,76.807,40.66,80.901,40.66z"/>
<polygon points="85.132,53.165 40.147,53.165 40.135,50.5 85.132,50.438 "/>
<path d="M49.587,43.906c-4.673,0-7.151,0.281-8.484-0.72c-1.529-1.148-1.529-3.612-1.529-8.903c0-9.757,0-9.757,9.712-9.757
	c10.304,0,10.356,0,10.29,10.175C59.502,45.901,60.927,43.719,49.587,43.906z M55.822,40.734c0-4.473,0-8.477,0-12.541
	c-4.45,0-8.496,0-12.618,0c0,4.323,0,8.333,0,12.541C47.489,40.734,51.401,40.734,55.822,40.734z"/>
<path d="M39.834,52.786"/>
<rect x="39.81" y="60.604" width="17.712" height="2.417"/>
<rect x="67.419" y="60.604" width="17.712" height="2.417"/>
<rect x="39.573" y="67.188" width="45.558" height="2.875"/>
</svg>
