<?xml version="1.0" encoding="utf-8"?>
<!-- Generator: Adobe Illustrator 17.0.0, SVG Export Plug-In . SVG Version: 6.00 Build 0)  -->
<!DOCTYPE svg PUBLIC "-//W3C//DTD SVG 1.1//EN" "http://www.w3.org/Graphics/SVG/1.1/DTD/svg11.dtd">
<svg version="1.1" id="L0001_xA0_Image_1_" xmlns="http://www.w3.org/2000/svg" xmlns:xlink="http://www.w3.org/1999/xlink" x="0px"
	 y="0px" width="959.88px" height="959.88px" viewBox="0 0 959.88 959.88" enable-background="new 0 0 959.88 959.88"
	 xml:space="preserve">
<path d="M963.63,359.955c-9.09,36.72-15.17,74.517-27.839,109.957c-36.974,103.431-104.003,186.841-182.513,261.613
	c-75.387,71.799-159.284,132.169-249.73,183.682c-14.212,8.094-25.295,8.164-39.605-0.072
	c-131.006-75.397-249.262-166.103-342.722-286.139C60.914,551.541,17.485,466.121,6.484,366.787
	c-0.26-2.349-1.794-4.557-2.734-6.832c0-22.497,0-44.994,0-67.492c8.649-28.46,14.347-58.244,26.425-85.166
	c77.976-173.81,289.573-217.541,421.876-87.958c10.999,10.773,20.798,22.77,31.993,35.123c4.451-5.336,8.241-10.072,12.23-14.633
	c64.379-73.612,145.476-109.318,242-91.56c117.421,21.603,185.659,99.56,217.685,211.817c3.04,10.655,5.137,21.578,7.673,32.377
	C963.63,314.961,963.63,337.458,963.63,359.955z M931.315,329.236c1.056-42.082-7.72-82.088-27.656-119.035
	C861.825,132.676,799.651,81.175,709.451,76.532C622.52,72.057,553.738,110.02,504.8,182.389
	c-17.203,25.44-25.01,25.328-42.434-0.195c-50.973-74.666-122.16-113.007-212.171-104.992
	C138.501,87.146,45.31,187.408,37.218,299.547c-7.1,98.392,24.751,185.805,78.326,266.039
	c91.919,137.659,219.268,235.911,359.986,318.68c4.187,2.463,12.36,2.41,16.577-0.056
	c133.763-78.233,254.749-171.632,346.237-298.667C893.371,509.137,929.426,425.206,931.315,329.236z"/>
</svg>
