<?xml version="1.0" encoding="utf-8"?>
<!-- Generator: Adobe Illustrator 17.0.0, SVG Export Plug-In . SVG Version: 6.00 Build 0)  -->
<!DOCTYPE svg PUBLIC "-//W3C//DTD SVG 1.1//EN" "http://www.w3.org/Graphics/SVG/1.1/DTD/svg11.dtd">
<svg version="1.1" id="Forma_1_1_" xmlns="http://www.w3.org/2000/svg" xmlns:xlink="http://www.w3.org/1999/xlink" x="0px" y="0px"
	 width="464px" height="512px" viewBox="0 0 464 512" enable-background="new 0 0 464 512" xml:space="preserve">
<g id="Forma_1">
	<g>
		<path fill-rule="evenodd" clip-rule="evenodd" d="M206.38,418.178h-8.536c-4.714,0-8.536,3.818-8.536,8.529
			s3.821,8.529,8.536,8.529h8.536c4.714,0,8.536-3.818,8.536-8.529S211.093,418.178,206.38,418.178z M402.704,281.71
			c-4.714,0-8.536,3.818-8.536,8.529v196.174c0,4.711-3.822,8.529-8.535,8.529h-85.358V367.002
			c0-14.131-11.465-25.588-25.608-25.588h-85.358c-14.142,0-25.608,11.456-25.608,25.588v127.939H78.343
			c-4.714,0-8.536-3.818-8.536-8.529V290.239c0-4.711-3.821-8.529-8.536-8.529c-4.714,0-8.536,3.818-8.536,8.529v196.174
			c0,14.128,11.459,25.582,25.598,25.588h307.31c14.138-0.005,25.598-11.458,25.598-25.588V290.239
			C411.24,285.528,407.418,281.71,402.704,281.71z M283.202,494.941H180.772V367.002c0-4.711,3.821-8.529,8.536-8.529h85.358
			c4.714,0,8.536,3.818,8.536,8.529V494.941z M266.131,298.768c14.142,0,25.608-11.457,25.608-25.588v-59.705
			c0-14.132-11.465-25.588-25.608-25.588h-68.287c-14.142,0-25.608,11.456-25.608,25.588v59.705
			c0,14.131,11.464,25.588,25.608,25.588H266.131z M189.308,273.181v-59.705c0-4.711,3.821-8.529,8.535-8.529h68.287
			c4.714,0,8.536,3.819,8.536,8.529v59.705c0,4.711-3.822,8.529-8.536,8.529h-68.287C193.129,281.71,189.308,277.89,189.308,273.181
			z M456.506,220.205L250.177,7.971c-10.074-9.971-26.306-9.971-36.38,0L7.494,220.205C0.097,227.824-2,239.136,2.177,248.897
			c3.876,9.551,13.176,15.788,23.491,15.753h2.919c6.105-0.059,11.984-2.315,16.56-6.354c0.609-0.397,1.18-0.848,1.708-1.347
			L231.987,66.388l185.271,190.663c0.494,0.469,1.028,0.894,1.596,1.27c4.573,4.023,10.441,6.269,16.534,6.329h2.919
			c10.324,0.045,19.637-6.193,23.516-15.753C466,239.136,463.903,227.824,456.506,220.205z M446.101,242.261
			c-1.268,3.196-4.351,5.305-7.793,5.33h-2.919c-2.259,0.001-4.418-0.925-5.975-2.559c-0.06-0.068-0.154-0.085-0.213-0.145
			c-0.06-0.06-0.119-0.154-0.196-0.213L238.107,48.203l-0.102-0.068l-0.043-0.128c-0.411-0.328-0.854-0.614-1.323-0.853
			c-0.442-0.353-0.92-0.659-1.425-0.913c-0.524-0.169-1.065-0.284-1.614-0.341c-1.025-0.375-2.151-0.375-3.175,0
			c-0.548,0.058-1.088,0.172-1.613,0.341c-0.505,0.255-0.983,0.561-1.425,0.913c-0.469,0.239-0.912,0.525-1.323,0.853l-0.068,0.102
			l-0.102,0.068L34.954,244.675c-0.077,0.06-0.111,0.145-0.188,0.205c-0.077,0.06-0.162,0.085-0.222,0.154
			c-1.557,1.634-3.717,2.56-5.975,2.559h-2.902c-3.442-0.025-6.524-2.134-7.793-5.331c-1.515-3.449-0.79-7.472,1.836-10.175h-0.018
			l206.32-212.226c1.573-1.584,3.715-2.476,5.95-2.476c2.234,0,4.375,0.892,5.95,2.476l206.354,212.225
			C446.891,234.79,447.616,238.812,446.101,242.261z"/>
	</g>
</g>
</svg>
