<svg id="Capa_1" enable-background="new 0 0 512 512" height="512" viewBox="0 0 512 512" width="512" xmlns="http://www.w3.org/2000/svg"><g><path d="m138.11 236.743 7.482-19.645h49.784l7.406 19.623c1.464 3.88 5.794 5.829 9.665 4.368 3.875-1.462 5.831-5.789 4.368-9.665l-37.088-98.277c-.025-.068-.053-.137-.081-.205-1.511-3.674-5.053-6.046-9.024-6.046h-.011c-3.977.004-7.519 2.386-9.023 6.065-.022.057-.045.113-.066.169l-37.429 98.273c-1.475 3.87.469 8.203 4.34 9.678 3.865 1.478 8.203-.467 9.677-4.338zm32.489-85.302 19.117 50.657h-38.411z"/><path d="m408.12 277.277h9.25c4.143 0 7.5-3.357 7.5-7.5s-3.357-7.5-7.5-7.5c-9.524 0-27.212 0-35.07 0v-5.271c0-4.143-3.357-7.5-7.5-7.5s-7.5 3.357-7.5 7.5v5.271h-35.07c-4.143 0-7.5 3.357-7.5 7.5s3.357 7.5 7.5 7.5h60.8c-2.745 22.387-10.027 39.185-22.233 50.919-5.265-5.269-8.314-12.349-9.596-21.607-.568-4.104-4.358-6.974-8.457-6.4-4.104.567-6.969 4.354-6.4 8.457 1.759 12.709 6.294 21.916 12.353 28.625-7.891 4.574-17.139 7.826-27.829 9.8-4.073.752-6.766 4.664-6.013 8.737.667 3.613 3.819 6.139 7.366 6.139.452 0 .91-.041 1.371-.126 14.631-2.702 27.215-7.674 37.669-14.819 9.942 5.346 21.242 7.336 30.974 8.287.248.023.494.036.738.036 3.813 0 7.077-2.897 7.456-6.771.402-4.122-2.613-7.791-6.735-8.194-7.774-.76-14.327-2.103-19.799-4.126 1.818-1.933 3.54-3.96 5.157-6.089 10.382-13.667 16.637-31.023 19.068-52.868z"/><path d="m504.5 349.387c4.143 0 7.5-3.357 7.5-7.5v-124.458c0-10.668-8.68-19.348-19.348-19.348h-151.751v-124.78c0-12.343-10.041-22.384-22.384-22.384h-234.753c-4.143 0-7.5 3.357-7.5 7.5s3.357 7.5 7.5 7.5h234.754c4.071 0 7.384 3.312 7.384 7.384v124.78h-68.954c-10.668 0-19.347 8.679-19.347 19.347v85.125h-99.856c-8.251 0-15.912 4.796-19.517 12.217l-21.651 44.567-21.65-44.566c-3.604-7.422-11.266-12.218-19.517-12.218h-33.027c-4.071 0-7.383-3.312-7.383-7.384v-221.868c0-4.071 3.312-7.384 7.384-7.384h31.393c4.143 0 7.5-3.357 7.5-7.5s-3.357-7.5-7.5-7.5h-31.393c-12.343 0-22.384 10.041-22.384 22.384v221.868c0 12.343 10.041 22.384 22.383 22.384h33.026c2.547 0 4.911 1.48 6.024 3.771l23.858 49.11c2.116 4.357 6.44 7.064 11.285 7.064 4.844 0 9.168-2.707 11.284-7.063l23.858-49.112c1.113-2.29 3.478-3.771 6.024-3.771h99.856v76.47c0 10.668 8.679 19.347 19.347 19.347h26.287c1.445 0 2.786.84 3.418 2.14l18.989 39.09c1.942 4 5.912 6.484 10.358 6.484 4.447 0 8.417-2.484 10.359-6.484l18.988-39.089c.633-1.3 1.975-2.141 3.42-2.141h143.886c10.668 0 19.347-8.679 19.347-19.347v-22.148c0-4.143-3.357-7.5-7.5-7.5s-7.5 3.357-7.5 7.5v22.148c0 2.396-1.95 4.347-4.347 4.347h-143.882c-7.147 0-13.785 4.154-16.911 10.585l-15.855 32.64-15.856-32.64c-3.124-6.43-9.762-10.585-16.91-10.585h-26.287c-2.396 0-4.347-1.95-4.347-4.347v-176.594c0-2.396 1.95-4.347 4.347-4.347h235.705c2.397 0 4.348 1.95 4.348 4.348v124.458c-.002 4.142 3.355 7.5 7.498 7.5z"/></g></svg>