<svg height="480pt" viewBox="-64 0 480 480" width="480pt" xmlns="http://www.w3.org/2000/svg"><path d="m152 240h-48c-4.417969 0-8 3.582031-8 8v64c0 4.417969 3.582031 8 8 8h48c4.417969 0 8-3.582031 8-8v-64c0-4.417969-3.582031-8-8-8zm-8 40h-8v-24h8zm-24-24v24h-8v-24zm-8 48v-8h32v8zm0 0"/><path d="m192 184h16v16h-16zm0 0"/><path d="m192 152h16v16h-16zm0 0"/><path d="m192 120h16v16h-16zm0 0"/><path d="m192 88h16v16h-16zm0 0"/><path d="m224 152h16v48h-16zm0 0"/><path d="m224 88h16v48h-16zm0 0"/><path d="m336 80c8.835938 0 16-7.164062 16-16v-48c0-8.835938-7.164062-16-16-16h-320c-8.835938 0-16 7.164062-16 16v48c0 8.835938 7.164062 16 16 16h48v264c0 13.253906 10.746094 24 24 24h80v24c.0625 18.988281 13.410156 35.339844 32 39.199219v32.800781c0 8.835938 7.164062 16 16 16h120c8.835938 0 16-7.164062 16-16v-186.71875c.03125-10.632812-4.195312-20.835938-11.734375-28.328125l-52.265625-52.265625v-116.6875zm-320-16v-48h320v48h-48v-16h16v-16h-256v16h16v16zm64 280v-296h192v232h-8.800781l-31.742188-31.734375c-6.265625-6.253906-16.410156-6.253906-22.671875 0l-5.601562 5.597656c-7.515625 7.492188-11.742188 17.667969-11.742188 28.28125s4.226563 20.789063 11.742188 28.28125l36.816406 36.886719v4.6875h-152c-4.417969 0-8-3.582031-8-8zm248.953125-83.726562c4.53125 4.496093 7.070313 10.621093 7.046875 17.007812v186.71875h-120v-32.800781c-.019531-7.65625-5.464844-14.226563-12.984375-15.671875-11.082031-2.394532-19-12.1875-19.015625-23.527344v-24h56c.027344 22.082031 17.917969 39.972656 40 40v-16c-13.253906 0-24-10.746094-24-24v-24c0-2.121094-.84375-4.15625-2.34375-5.65625l-39.199219-39.199219c-3.433593-3.414062-5.753906-7.78125-6.65625-12.535156-1.378906-7.800781 1.101563-15.785156 6.65625-21.433594l5.648438-5.601562 34.078125 34.082031c1.5 1.5 3.535156 2.34375 5.65625 2.34375h20.160156c4.417969 0 8-3.582031 8-8v-68.6875zm0 0"/><path d="m128 80c-17.671875 0-32 14.328125-32 32 .03125 5.605469 1.554688 11.097656 4.40625 15.921875-7.886719 13.441406-4.941406 30.609375 6.976562 40.65625 11.914063 10.046875 29.335938 10.046875 41.25 0 11.917969-10.046875 14.863282-27.214844 6.976563-40.65625 2.847656-4.824219 4.363281-10.320313 4.390625-15.921875 0-17.671875-14.328125-32-32-32zm0 16c8.835938 0 16 7.164062 16 16s-7.164062 16-16 16-16-7.164062-16-16 7.164062-16 16-16zm0 64c-8.835938 0-16-7.164062-16-16 .019531-1.394531.222656-2.78125.609375-4.121094 9.523437 5.496094 21.257813 5.496094 30.78125 0 .386719 1.339844.589844 2.726563.609375 4.121094 0 8.835938-7.164062 16-16 16zm0 0"/></svg>