<?xml version="1.0" encoding="utf-8"?>
<!-- Generator: Adobe Illustrator 17.0.0, SVG Export Plug-In . SVG Version: 6.00 Build 0)  -->
<!DOCTYPE svg PUBLIC "-//W3C//DTD SVG 1.1//EN" "http://www.w3.org/Graphics/SVG/1.1/DTD/svg11.dtd">
<svg version="1.1" id="L0001_xA0_Image_1_" xmlns="http://www.w3.org/2000/svg" xmlns:xlink="http://www.w3.org/1999/xlink" x="0px"
	 y="0px" width="1024.234px" height="1024.234px" viewBox="0 0 1024.234 1024.234" enable-background="new 0 0 1024.234 1024.234"
	 xml:space="preserve">
<path d="M44.01,772.176c16.499-46.725,49.147-70.535,99.059-71.68c19.37-0.444,32.931-12.952,38.295-30.472
	c6.762-22.086,13.117-45.064,14.335-67.941c4.074-76.525,2.63-153.463,9.563-229.673c4.225-46.441,15.217-93.609,31.565-137.309
	c28.873-77.18,89.004-122.684,168.309-142.466c13.038-3.252,20.081-7.41,23.329-21.732c8.154-35.954,35.158-54.613,67.647-66.902
	c12.003,0,24.005,0,36.008,0c38.106,12.441,64.742,35.288,73.106,76.685c0.967,4.786,11.557,9.226,18.413,10.979
	c72.22,18.465,127.815,58.19,162.509,125.192c2.446,4.724,6.513,9.69,6.353,14.425c-0.235,6.916-3.619,13.725-5.661,20.579
	c-6.857-2.296-13.75-4.494-20.529-7.003c-0.936-0.347-1.372-2.2-1.923-3.409c-35.887-78.759-100.952-115.451-183.359-126.857
	c-55.282-7.652-110.464-7.023-164.865,6.122c-98.76,23.863-152.8,90.611-171.185,187.05c-8.563,44.917-11.036,91.17-13.813,136.966
	c-2.661,43.887-1.863,87.975-3.102,131.96c-1.185,42.075-4.714,83.778-27.522,123.529c210.077,0,418.116,0,627.838,0
	c-33.531-68.539-24.526-141.888-28.401-213.843c-3.253-60.4-10.191-120.596-14.333-180.962c-0.558-8.135,3.588-21.762,9.213-24.12
	c13.396-5.616,19.057,6.479,20.156,17.598c5.759,58.256,11.666,116.521,15.796,174.906c3.897,55.086,2.675,110.681,9.251,165.385
	c5.767,47.971,19.606,57.368,66.707,63.605c40.757,5.397,69.221,31.825,77.817,72.127c0.955,4.477,2.413,8.846,3.637,13.265
	c0,1.334,0,2.667,0,4.001c-1.237,5.07-2.63,10.107-3.687,15.214c-8.976,43.403-43.326,72.367-87.842,72.666
	c-65.345,0.439-130.694,0.12-196.042,0.124c-7.211,0-14.421,0-22.579,0c-6.651,46.748-26.371,84.869-62.742,113.329
	c-28.18,22.051-60.372,33.722-96.118,34.515c-83.367,1.851-136.871-44.946-168.458-147.856c-18.1,0-36.828,1.341-55.185-0.681
	c-7.028-0.775-13.209-9.238-19.776-14.198c6.401-5.219,12.186-11.709,19.418-15.212c4.872-2.36,11.787-0.527,17.788-0.527
	c190.041-0.005,380.082,0.053,570.124-0.148c11.207-0.012,22.972-0.301,33.507-3.58c25.6-7.968,42.122-34.951,39.088-60.701
	c-3.224-27.36-24.956-49.202-52.424-52.502c-3.953-0.475-7.991-0.318-11.99-0.318c-250.721-0.012-501.442-0.038-752.163,0.025
	c-30.532,0.008-52.06,14.06-61.059,39.184c-13.349,37.27,12.694,76.037,53.293,77.674c29.294,1.181,58.67,0.258,88.008,0.401
	c11.665,0.057,24.923,0.152,24.35,16.244c-0.516,14.493-12.813,14.469-23.937,14.393c-22.004-0.15-44.091-1.267-65.998,0.198
	C98.52,884.121,61.49,861.323,44.01,808.184C44.01,796.182,44.01,784.179,44.01,772.176z M385.164,880.988
	c2.682,64.149,63.579,117.402,132.182,116.363c67.011-1.015,126.106-54.757,127.273-116.363
	C558.137,880.988,471.667,880.988,385.164,880.988z M571.638,80.825c-6.752-29.954-29.141-46.875-59.163-45.787
	c-27.816,1.008-49.105,19.283-53.26,45.787C496.189,80.825,533.153,80.825,571.638,80.825z"/>
<path d="M897.103,304.528c0,9.693,1.765,17.025-0.475,22.804c-2.456,6.337-8.606,11.242-13.146,16.772
	c-5.297-5.486-14.143-10.325-15.28-16.568c-5.103-28.006-5.664-56.968-12.204-84.557c-13.597-57.362-43.241-105.359-91.816-140.33
	c-8.695-6.26-16.994-13.218-9.409-24.268c8.157-11.882,18.39-6.778,27.664-0.03c63.318,46.07,95.7,110.481,109.586,185.658
	C894.67,278.344,895.691,292.978,897.103,304.528z"/>
<path d="M964.208,226.569c0,7.127,1.442,11.975-0.309,14.928c-3.336,5.626-9.121,14.658-12.757,14.151
	c-6.012-0.838-14.612-7.275-15.956-12.841c-3.868-16.026-3.537-33.028-6.882-49.227c-6.916-33.491-22.844-62.28-49.194-84.635
	c-8.747-7.421-17.047-15.461-7.178-26.42c9.79-10.871,19.442-3.3,27.677,3.931C942.813,124.393,960.502,173.9,964.208,226.569z"/>
<path d="M132.653,315.254c4.712-83.841,29.571-158.508,91.39-217.495c7.667-7.316,15.577-15.489,24.979-19.525
	c7.546-3.239,21.172-4.521,25.658-0.114c9.021,8.863,1.336,17.614-7.787,24.06c-44.683,31.572-73.748,74.887-88.626,126.666
	c-7.994,27.822-10.141,57.365-14.348,86.216c-1.753,12.026,2.371,28.787-16.21,28.487
	C129.025,343.248,133.248,326.669,132.653,315.254z"/>
<path d="M147.354,75.251c5,3.894,12.949,7.203,13.09,10.816c0.264,6.762-1.946,16.13-6.719,20.163
	c-27.095,22.895-43.552,51.856-51.49,85.77c-3.316,14.165-4.633,28.884-5.801,43.436c-0.862,10.745-1.937,21.07-15.48,21.038
	c-13.717-0.032-15.17-10.366-14.808-21.198c1.897-56.805,19.174-107.139,62.118-146.466
	C133.539,83.978,139.984,80.425,147.354,75.251z"/>
</svg>
