<?xml version="1.0" encoding="utf-8"?>
<!-- Generator: Adobe Illustrator 17.0.0, SVG Export Plug-In . SVG Version: 6.00 Build 0)  -->
<!DOCTYPE svg PUBLIC "-//W3C//DTD SVG 1.1//EN" "http://www.w3.org/Graphics/SVG/1.1/DTD/svg11.dtd">
<svg version="1.1" id="L0001_xA0_Image_1_" xmlns="http://www.w3.org/2000/svg" xmlns:xlink="http://www.w3.org/1999/xlink" x="0px"
	 y="0px" width="383.952px" height="293.151px" viewBox="0 0 383.952 293.151" enable-background="new 0 0 383.952 293.151"
	 xml:space="preserve">
<g>
	<defs>
		<rect id="SVGID_1_" x="-221.857" y="15.77" width="6.888" height="5.304"/>
	</defs>
	<clipPath id="SVGID_2_">
		<use xlink:href="#SVGID_1_"  overflow="visible"/>
	</clipPath>
	<g transform="matrix(1 0 0 1 0 0)" clip-path="url(#SVGID_2_)">
		
			<image overflow="visible" width="62" height="48" xlink:href="L-2.png"  transform="matrix(0.1111 0 0 0.1105 -221.8571 15.7704)">
		</image>
	</g>
</g>
<path d="M0,168.396c1.36-6.063,2.205-12.298,4.167-18.159c9.272-27.701,28.634-46.345,54.332-58.89
	c6.464-3.156,13.511-5.104,20.207-7.811c1.444-0.584,3.022-1.794,3.712-3.14c10.984-21.415,26.926-38.299,46.789-51.643
	c3.621-2.433,6.958-2.096,8.868,0.78c1.895,2.854,0.995,6.076-2.637,8.545c-17.003,11.554-31.42,25.641-40.974,43.978
	c-20.687,39.707-17.275,78.012,9.225,113.652c22.361,30.073,53.664,46.47,89.924,53.603c33.804,6.65,66.855,3.602,98.835-9.563
	c0.577-0.237,1.15-0.497,1.747-0.67c3.208-0.93,6.076,0.268,7.22,2.989c1.232,2.932,0.124,6.082-3.16,7.369
	c-6.729,2.636-13.582,4.955-20.391,7.386c-1.038,0.371-2.109,0.647-3.519,1.999c8.62,3.812,17.021,8.271,25.915,11.268
	c10.72,3.613,21.829,6.106,32.845,8.774c1.869,0.453,4.964,0.022,5.956-1.224c1.047-1.315,0.913-4.365,0.162-6.191
	c-5.457-13.267-11.207-26.414-16.851-39.605c-2.469-5.77-2.14-7.025,2.764-10.746c18.305-13.891,32.315-31.101,40.772-52.627
	c1.639-4.173,4.388-5.704,7.725-4.486c3.281,1.197,4.318,4.543,2.635,8.828c-8.465,21.555-22.129,39.278-40.032,53.783
	c-2.271,1.84-2.67,3.184-1.488,5.84c5.123,11.511,9.974,23.143,14.994,34.701c2.043,4.704,2.41,9.392,0.37,14.158
	c-2.993,6.994-9.666,10.406-17.435,9.065c-26.125-4.509-50.706-13.004-72.836-27.947c-1.007-0.68-2.6-0.971-3.82-0.785
	c-24.889,3.795-49.544,2.757-74.018-3.188c-1.502-0.365-3.483-0.097-4.868,0.61c-11.648,5.943-23.873,10.117-36.723,12.495
	c-4.089,0.757-6.687-0.673-7.49-4.18c-0.772-3.37,1.161-5.793,5.139-6.824c8.411-2.179,16.792-4.474,25.185-6.721
	c-0.06-0.342-0.121-0.683-0.181-1.025c-5.689-2.613-11.494-5.001-17.048-7.876c-28.528-14.765-51.308-35.428-65.079-64.925
	c-12.114-25.948-13.975-52.806-6.056-80.334c0.264-0.918,0.459-1.856,0.794-3.227c-12.338,4.14-23.201,10.057-32.943,17.965
	c-15.201,12.34-26.117,27.583-29.926,47.065c-5.331,27.261,3.536,50.182,22.535,69.647c3.215,3.294,6.91,6.127,10.456,9.086
	c3.425,2.858,3.975,4.624,2.198,8.805c-3.952,9.301-8.014,18.556-11.901,27.884c-0.57,1.368-0.428,3.033-0.615,4.56
	c1.325,0.036,2.694,0.31,3.968,0.073c17.242-3.216,33.395-9.143,48.028-19.034c1.867-1.262,4.618-1.824,6.916-1.722
	c6.723,0.299,13.421,1.144,20.135,1.683c4.448,0.358,6.947,2.355,6.905,5.743c-0.044,3.565-2.724,5.701-7.41,5.456
	c-6.105-0.32-12.191-1.011-18.297-1.326c-1.465-0.076-3.195,0.353-4.428,1.138c-16.148,10.283-33.745,16.64-52.61,19.531
	c-10.169,1.559-17.872-8.14-14.049-17.785c3.355-8.463,7.037-16.8,10.722-25.127c0.9-2.033,0.769-3.171-1.045-4.707
	C15.591,229.512,3.476,209.9,0.56,185.153c-0.071-0.6-0.368-1.174-0.56-1.759C0,178.394,0,173.395,0,168.396z"/>
<path d="M383.952,140.649c-0.346,2.198-0.653,4.403-1.046,6.593c-0.734,4.087-3.098,6.075-6.554,5.577
	c-3.259-0.469-5.021-2.906-4.527-6.939c1.519-12.395,1.123-24.686-1.799-36.841c-6.755-28.1-22.921-49.863-45.771-66.888
	C301.083,24.887,274.82,15.42,246.182,12.3c-31.101-3.388-60.972,1.111-89.565,13.899c-3.966,1.774-7.226,0.849-8.597-2.286
	c-1.408-3.221,0.012-6.074,4.086-7.926c27.009-12.272,55.361-17.289,84.938-15.703c34.255,1.838,65.7,11.953,93.402,32.436
	c26.882,19.876,45.212,45.555,51.636,78.907c0.751,3.9,1.252,7.848,1.868,11.774C383.952,129.151,383.952,134.9,383.952,140.649z"/>
<path d="M241.15,163.857c-3.453,3.133-6.301,6.347-9.733,8.716c-11.158,7.701-25.334,3.348-28.603-8.616
	c-1.408-5.153-0.803-10.368,1.774-14.902c3.979-7,8.569-13.653,13.08-20.735c-2.014-3.124-4.801-6.816-6.912-10.861
	c-3.543-6.788-2.101-14.24,3.292-19.557c5.286-5.212,13.039-6.544,19.725-3.389c6.684,3.154,11.276,10.257,9.747,17.314
	c-0.989,4.564-3.915,8.743-6.189,12.978c-0.928,1.728-2.428,3.149-3.914,5.021c2.02,3.294,4.076,6.649,6.468,10.551
	c1.133-2.077,2.047-3.756,2.964-5.433c1.978-3.619,4.935-4.83,7.942-3.254c2.996,1.57,3.764,4.665,2,8.401
	c-1.489,3.156-3.272,6.194-4.496,9.445c-0.513,1.364-0.423,3.415,0.263,4.686c2.246,4.165,4.91,8.102,7.377,12.15
	c2.399,3.937,1.983,7.344-1.06,9.132c-2.935,1.724-6.042,0.59-8.381-3.098C244.693,169.567,242.931,166.708,241.15,163.857z
	 M225.302,138.21c-4.747,5.323-9.024,10.628-11.253,17.236c-0.972,2.882-1.362,5.965,1.368,8.279
	c2.798,2.371,6.179,2.105,8.628,0.063c3.459-2.884,6.337-6.49,9.27-9.952c0.467-0.551,0.248-2.15-0.212-2.939
	C230.666,146.714,228.049,142.635,225.302,138.21z M226.291,121.11c2.136-3.266,3.926-5.779,5.476-8.433
	c1.662-2.846,0.725-5.35-1.695-7.246c-2.456-1.924-5.163-1.881-7.58,0.045c-2.407,1.919-3.22,4.465-1.573,7.287
	C222.418,115.332,224.132,117.777,226.291,121.11z"/>
<path d="M174.668,170.995c-13.775,9.513-27.682,4.818-34.625-3.126c-4.211-4.818-6.377-10.423-6.435-16.761
	c-0.1-10.994-0.163-21.992,0.004-32.985c0.211-13.917,10.895-24.811,24.541-25.313c13.356-0.492,25.003,9.644,25.733,23.486
	c0.644,12.206,0.123,24.473,0.113,36.713c0,0.249-0.044,0.498-0.071,0.746c-0.813,7.52-0.799,7.511,3.271,13.864
	c1.645,2.567,1.361,5.085-0.808,7.136c-2.179,2.062-4.759,2.151-7.168,0.366C177.641,173.95,176.282,172.476,174.668,170.995z
	 M172.254,152.319c0.292-0.542,0.61-0.858,0.61-1.173c-0.009-11.494,0.292-23.002-0.203-34.476
	c-0.325-7.524-6.959-12.894-14.192-12.625c-7.289,0.271-13.379,5.968-13.558,13.438c-0.272,11.366-0.366,22.752,0.012,34.112
	c0.364,10.947,11.72,16.789,22.204,10.714c-2.45-2.136-4.919-3.888-6.868-6.098c-2.078-2.357-1.933-5.17,0.357-7.415
	c2.27-2.225,4.942-2.249,7.456-0.321C169.534,149.596,170.803,150.969,172.254,152.319z"/>
<path d="M327.127,170.301c-0.02,3.319-1.524,5.235-4.515,5.781c-3.189,0.581-5.4-0.838-6.317-3.884
	c-1.617-5.367-3.162-10.76-4.531-16.194c-0.592-2.351-1.69-3.147-4.13-3.091c-7.111,0.163-14.231,0.172-21.341-0.003
	c-2.529-0.062-3.468,0.935-4.031,3.218c-1.253,5.079-2.691,10.115-4.157,15.138c-1.171,4.013-3.759,5.651-7.172,4.731
	c-3.326-0.896-4.77-3.75-3.661-7.754c6.151-22.215,12.321-44.426,18.571-66.614c1.546-5.489,6.017-8.82,11.232-8.787
	c5.258,0.033,9.546,3.307,11.122,8.894c6.225,22.065,12.36,44.155,18.513,66.24C326.942,168.812,327.02,169.69,327.127,170.301z
	 M286.42,141.41c7.344,0,14.107,0,21.201,0c-3.463-12.4-6.817-24.411-10.171-36.423c-0.288,0-0.577,0-0.865,0.001
	C293.226,117.025,289.866,129.062,286.42,141.41z"/>
</svg>
